<mxfile host="www.draw.io" modified="2020-02-04T17:23:19.922Z" agent="Mozilla/5.0 (Windows NT 10.0; WOW64) AppleWebKit/537.36 (KHTML, like Gecko) Chrome/79.0.3945.130 Safari/537.36" etag="-OEgobcYx9TmEheWx_4o" version="12.6.5" type="github">
  <diagram id="V1nhUXb54aowiIwP66wq" name="Page-1">
    <mxGraphModel dx="946" dy="525" grid="1" gridSize="10" guides="1" tooltips="1" connect="1" arrows="0" fold="1" page="1" pageScale="1" pageWidth="1700" pageHeight="1100" background="#ffffff" math="0" shadow="0">
      <root>
        <mxCell id="0"/>
        <mxCell id="1" parent="0"/>
        <mxCell id="8" style="edgeStyle=orthogonalEdgeStyle;rounded=0;html=1;exitX=0.5;exitY=0;jettySize=auto;orthogonalLoop=1;" parent="1" source="2" target="7" edge="1">
          <mxGeometry relative="1" as="geometry"/>
        </mxCell>
        <UserObject label="East Butte AP&lt;br&gt;134.20.122.41&lt;br&gt;&lt;br&gt;" link="http://134.20.122.41/" id="2">
          <mxCell style="rounded=0;whiteSpace=wrap;html=1;fillColor=#fff2cc;strokeColor=#d6b656;" parent="1" vertex="1">
            <mxGeometry x="149" y="360" width="120" height="60" as="geometry"/>
          </mxCell>
        </UserObject>
        <mxCell id="5" style="edgeStyle=orthogonalEdgeStyle;rounded=0;html=1;exitX=0.5;exitY=1;entryX=0.5;entryY=0;jettySize=auto;orthogonalLoop=1;fontSize=10;" parent="1" source="3" target="4" edge="1">
          <mxGeometry relative="1" as="geometry"/>
        </mxCell>
        <mxCell id="6" style="edgeStyle=orthogonalEdgeStyle;rounded=0;html=1;exitX=0.5;exitY=0;jettySize=auto;orthogonalLoop=1;dashed=1;" parent="1" source="3" target="2" edge="1">
          <mxGeometry relative="1" as="geometry"/>
        </mxCell>
        <UserObject label="&lt;font style=&quot;font-size: 10px&quot;&gt;MFC Exterior&lt;br style=&quot;font-size: 10px&quot;&gt;134.20.122.49&lt;/font&gt;&lt;br style=&quot;font-size: 10px&quot;&gt;" link="http://134.20.122.49/" id="3">
          <mxCell style="rhombus;whiteSpace=wrap;html=1;fontSize=10;" parent="1" vertex="1">
            <mxGeometry x="162.5" y="730" width="92" height="80" as="geometry"/>
          </mxCell>
        </UserObject>
        <mxCell id="4" value="134.20.122.37&lt;br style=&quot;font-size: 10px;&quot;&gt;00:21:0e:e4:e7:c4&lt;br style=&quot;font-size: 10px;&quot;&gt;MFC exterior Pump&lt;br style=&quot;font-size: 10px;&quot;&gt;" style="rounded=1;whiteSpace=wrap;html=1;fontSize=10;" parent="1" vertex="1">
          <mxGeometry x="148.5" y="900" width="120" height="60" as="geometry"/>
        </mxCell>
        <mxCell id="7" value="" style="verticalLabelPosition=bottom;aspect=fixed;html=1;verticalAlign=top;strokeColor=none;align=center;outlineConnect=0;shape=mxgraph.citrix.router;" parent="1" vertex="1">
          <mxGeometry x="181" y="260" width="55" height="36.5" as="geometry"/>
        </mxCell>
        <mxCell id="30" style="edgeStyle=orthogonalEdgeStyle;rounded=0;html=1;exitX=0.5;exitY=0;jettySize=auto;orthogonalLoop=1;" parent="1" source="9" target="11" edge="1">
          <mxGeometry relative="1" as="geometry"/>
        </mxCell>
        <UserObject label="HP2 AP&lt;br&gt;134.20.122.50&lt;br&gt;" link="http://134.20.122.50/" id="9">
          <mxCell style="rounded=0;whiteSpace=wrap;html=1;fillColor=#fff2cc;strokeColor=#d6b656;" parent="1" vertex="1">
            <mxGeometry x="338.5" y="360" width="120" height="60" as="geometry"/>
          </mxCell>
        </UserObject>
        <mxCell id="64" style="edgeStyle=orthogonalEdgeStyle;rounded=0;html=1;exitX=0.5;exitY=0;jettySize=auto;orthogonalLoop=1;" parent="1" source="10" target="11" edge="1">
          <mxGeometry relative="1" as="geometry"/>
        </mxCell>
        <mxCell id="65" style="edgeStyle=orthogonalEdgeStyle;rounded=0;html=1;exitX=0.5;exitY=1;entryX=0.5;entryY=0;jettySize=auto;orthogonalLoop=1;startArrow=classic;startFill=1;endArrow=none;endFill=0;dashed=1;" parent="1" source="10" target="13" edge="1">
          <mxGeometry relative="1" as="geometry"/>
        </mxCell>
        <UserObject label="HP1 AP&lt;br&gt;134.20.122.42&lt;br&gt;" link="http://134.20.122.42/" id="10">
          <mxCell style="rounded=0;whiteSpace=wrap;html=1;fillColor=#fff2cc;strokeColor=#d6b656;" parent="1" vertex="1">
            <mxGeometry x="498.5" y="360" width="120" height="60" as="geometry"/>
          </mxCell>
        </UserObject>
        <mxCell id="11" value="" style="verticalLabelPosition=bottom;aspect=fixed;html=1;verticalAlign=top;strokeColor=none;align=center;outlineConnect=0;shape=mxgraph.citrix.router;" parent="1" vertex="1">
          <mxGeometry x="458.5" y="250" width="55" height="36.5" as="geometry"/>
        </mxCell>
        <mxCell id="12" style="edgeStyle=orthogonalEdgeStyle;rounded=0;html=1;exitX=0.5;exitY=1;entryX=0.5;entryY=0;jettySize=auto;orthogonalLoop=1;fontSize=10;" parent="1" source="13" target="14" edge="1">
          <mxGeometry relative="1" as="geometry"/>
        </mxCell>
        <UserObject label="NRF&lt;br style=&quot;font-size: 10px;&quot;&gt;134.20.122.47&lt;br style=&quot;font-size: 10px;&quot;&gt;" link="http://134.20.122.47/" id="13">
          <mxCell style="rhombus;whiteSpace=wrap;html=1;fontSize=10;" parent="1" vertex="1">
            <mxGeometry x="518.5" y="730" width="80" height="80" as="geometry"/>
          </mxCell>
        </UserObject>
        <mxCell id="14" value="NRF&lt;br style=&quot;font-size: 10px;&quot;&gt;134.20.122.32&lt;br style=&quot;font-size: 10px;&quot;&gt;00:21:0e:e4:f0:14&lt;br style=&quot;font-size: 10px;&quot;&gt;" style="rounded=1;whiteSpace=wrap;html=1;fontSize=10;" parent="1" vertex="1">
          <mxGeometry x="498.5" y="900" width="120" height="60" as="geometry"/>
        </mxCell>
        <mxCell id="15" style="edgeStyle=orthogonalEdgeStyle;rounded=0;html=1;exitX=0.5;exitY=1;entryX=0.5;entryY=0;jettySize=auto;orthogonalLoop=1;fontSize=10;" parent="1" source="16" target="17" edge="1">
          <mxGeometry relative="1" as="geometry"/>
        </mxCell>
        <mxCell id="18" style="edgeStyle=orthogonalEdgeStyle;rounded=0;html=1;exitX=0.5;exitY=0;entryX=0.5;entryY=1;jettySize=auto;orthogonalLoop=1;dashed=1;" parent="1" source="16" target="9" edge="1">
          <mxGeometry relative="1" as="geometry"/>
        </mxCell>
        <UserObject label="&lt;font style=&quot;font-size: 10px;&quot;&gt;ATR&lt;br style=&quot;font-size: 10px;&quot;&gt;134.20.122.48&lt;/font&gt;&lt;br style=&quot;font-size: 10px;&quot;&gt;" link="http://134.20.122.48/" id="16">
          <mxCell style="rhombus;whiteSpace=wrap;html=1;fontSize=10;" parent="1" vertex="1">
            <mxGeometry x="358.5" y="730" width="80" height="80" as="geometry"/>
          </mxCell>
        </UserObject>
        <mxCell id="17" value="134.20.122.33&lt;br style=&quot;font-size: 10px;&quot;&gt;00:21:0e:e4:f0:26&lt;br style=&quot;font-size: 10px;&quot;&gt;ATR Diesel Pump&lt;br style=&quot;font-size: 10px;&quot;&gt;" style="rounded=1;whiteSpace=wrap;html=1;fontSize=10;" parent="1" vertex="1">
          <mxGeometry x="338.5" y="900" width="120" height="60" as="geometry"/>
        </mxCell>
        <UserObject label="CFA Diesel&lt;br style=&quot;font-size: 10px;&quot;&gt;134.20.122.43" link="http://134.20.122.43/" id="22">
          <mxCell style="rhombus;whiteSpace=wrap;html=1;fontSize=10;" parent="1" vertex="1">
            <mxGeometry x="726" y="730" width="100" height="90" as="geometry"/>
          </mxCell>
        </UserObject>
        <mxCell id="33" style="edgeStyle=orthogonalEdgeStyle;rounded=0;html=1;exitX=0.5;exitY=0;entryX=0.5;entryY=1;jettySize=auto;orthogonalLoop=1;dashed=1;" parent="1" source="23" target="25" edge="1">
          <mxGeometry relative="1" as="geometry"/>
        </mxCell>
        <mxCell id="60" style="edgeStyle=orthogonalEdgeStyle;rounded=0;html=1;exitX=0.5;exitY=1;jettySize=auto;orthogonalLoop=1;fontSize=10;" parent="1" source="23" target="27" edge="1">
          <mxGeometry relative="1" as="geometry"/>
        </mxCell>
        <UserObject label="CFA E85&lt;br style=&quot;font-size: 10px;&quot;&gt;134.20.122.45&lt;br style=&quot;font-size: 10px;&quot;&gt;" link="http://134.20.122.45/" id="23">
          <mxCell style="rhombus;whiteSpace=wrap;html=1;fontSize=10;" parent="1" vertex="1">
            <mxGeometry x="864" y="730" width="104" height="90" as="geometry"/>
          </mxCell>
        </UserObject>
        <mxCell id="24" value="" style="verticalLabelPosition=bottom;aspect=fixed;html=1;verticalAlign=top;strokeColor=none;align=center;outlineConnect=0;shape=mxgraph.citrix.router;" parent="1" vertex="1">
          <mxGeometry x="888.5" y="250" width="55" height="36.5" as="geometry"/>
        </mxCell>
        <mxCell id="35" style="edgeStyle=orthogonalEdgeStyle;rounded=0;html=1;exitX=0.5;exitY=0;jettySize=auto;orthogonalLoop=1;" parent="1" source="25" target="24" edge="1">
          <mxGeometry relative="1" as="geometry"/>
        </mxCell>
        <mxCell id="63" style="edgeStyle=orthogonalEdgeStyle;rounded=0;html=1;exitX=0.25;exitY=1;entryX=0.5;entryY=0;endArrow=none;endFill=0;jettySize=auto;orthogonalLoop=1;dashed=1;startArrow=classic;startFill=1;" parent="1" source="25" target="22" edge="1">
          <mxGeometry relative="1" as="geometry"/>
        </mxCell>
        <UserObject label="CFA AP&lt;br&gt;134.20.122.40&lt;br&gt;" link="http://134.20.122.40/" id="25">
          <mxCell style="rounded=0;whiteSpace=wrap;html=1;fillColor=#fff2cc;strokeColor=#d6b656;" parent="1" vertex="1">
            <mxGeometry x="856" y="370" width="120" height="60" as="geometry"/>
          </mxCell>
        </UserObject>
        <mxCell id="57" style="edgeStyle=orthogonalEdgeStyle;rounded=0;html=1;exitX=0.5;exitY=0;entryX=0.5;entryY=1;jettySize=auto;orthogonalLoop=1;endArrow=none;endFill=0;startArrow=classic;startFill=1;fontSize=10;" parent="1" source="26" target="22" edge="1">
          <mxGeometry relative="1" as="geometry"/>
        </mxCell>
        <mxCell id="26" value="CFA Diesel&lt;br style=&quot;font-size: 10px;&quot;&gt;134.20.122.34&lt;br style=&quot;font-size: 10px;&quot;&gt;00:21:0e:f0:14&lt;br style=&quot;font-size: 10px;&quot;&gt;" style="rounded=1;whiteSpace=wrap;html=1;fontSize=10;" parent="1" vertex="1">
          <mxGeometry x="716" y="900" width="120" height="60" as="geometry"/>
        </mxCell>
        <mxCell id="27" value="CFA E85&lt;br style=&quot;font-size: 10px;&quot;&gt;134.20.122.35&lt;br style=&quot;font-size: 10px;&quot;&gt;00:21:0e:f0:26&lt;br style=&quot;font-size: 10px;&quot;&gt;" style="rounded=1;whiteSpace=wrap;html=1;fontSize=10;" parent="1" vertex="1">
          <mxGeometry x="856" y="900" width="120" height="60" as="geometry"/>
        </mxCell>
        <mxCell id="28" value="CFA unleaded&lt;br style=&quot;font-size: 10px;&quot;&gt;134.20.122.36&lt;br style=&quot;font-size: 10px;&quot;&gt;00:21:0e:e4:ee:a4&lt;br style=&quot;font-size: 10px;&quot;&gt;" style="rounded=1;whiteSpace=wrap;html=1;fontSize=10;" parent="1" vertex="1">
          <mxGeometry x="988.5" y="900" width="120" height="60" as="geometry"/>
        </mxCell>
        <mxCell id="34" style="edgeStyle=orthogonalEdgeStyle;rounded=0;html=1;exitX=0.5;exitY=0;entryX=0.821;entryY=1.017;entryPerimeter=0;jettySize=auto;orthogonalLoop=1;dashed=1;" parent="1" source="29" target="25" edge="1">
          <mxGeometry relative="1" as="geometry"/>
        </mxCell>
        <mxCell id="61" style="edgeStyle=orthogonalEdgeStyle;rounded=0;html=1;exitX=0.5;exitY=1;jettySize=auto;orthogonalLoop=1;fontSize=10;" parent="1" source="29" target="28" edge="1">
          <mxGeometry relative="1" as="geometry"/>
        </mxCell>
        <UserObject label="CFA Unleaded&lt;br style=&quot;font-size: 10px;&quot;&gt;134.20.122.44&lt;br style=&quot;font-size: 10px;&quot;&gt;" link="http://134.20.122.44/" id="29">
          <mxCell style="rhombus;whiteSpace=wrap;html=1;fontSize=10;" parent="1" vertex="1">
            <mxGeometry x="997" y="730" width="103" height="95" as="geometry"/>
          </mxCell>
        </UserObject>
        <mxCell id="36" value="MFC 2 Diesel/Unleaded&lt;br style=&quot;font-size: 10px;&quot;&gt;134.20.159.30&lt;br style=&quot;font-size: 10px;&quot;&gt;00:21:0e:e4:e7:d8&lt;br style=&quot;font-size: 10px;&quot;&gt;" style="rounded=1;whiteSpace=wrap;html=1;fontSize=10;" parent="1" vertex="1">
          <mxGeometry x="1172.5" y="900" width="132" height="60" as="geometry"/>
        </mxCell>
        <mxCell id="41" style="edgeStyle=orthogonalEdgeStyle;rounded=0;html=1;exitX=0.5;exitY=0;entryX=0.5;entryY=1;jettySize=auto;orthogonalLoop=1;dashed=1;" parent="1" source="37" target="38" edge="1">
          <mxGeometry relative="1" as="geometry"/>
        </mxCell>
        <mxCell id="42" style="edgeStyle=orthogonalEdgeStyle;rounded=0;html=1;exitX=0.5;exitY=1;jettySize=auto;orthogonalLoop=1;fontSize=10;" parent="1" source="37" target="36" edge="1">
          <mxGeometry relative="1" as="geometry"/>
        </mxCell>
        <UserObject label="MFC Interior&lt;br style=&quot;font-size: 10px;&quot;&gt;134.20.159.81&lt;br style=&quot;font-size: 10px;&quot;&gt;" link="http://134.20.159.81/" id="37">
          <mxCell style="rhombus;whiteSpace=wrap;html=1;fontSize=10;" parent="1" vertex="1">
            <mxGeometry x="1185.5" y="730" width="106" height="90" as="geometry"/>
          </mxCell>
        </UserObject>
        <mxCell id="40" style="edgeStyle=orthogonalEdgeStyle;rounded=0;html=1;exitX=0.5;exitY=0;jettySize=auto;orthogonalLoop=1;" parent="1" source="38" target="39" edge="1">
          <mxGeometry relative="1" as="geometry"/>
        </mxCell>
        <UserObject label="MFC AP&lt;br&gt;134.20.159.80&lt;br&gt;" link="http://134.20.159.80/" id="38">
          <mxCell style="rounded=0;whiteSpace=wrap;html=1;fillColor=#fff2cc;strokeColor=#d6b656;" parent="1" vertex="1">
            <mxGeometry x="1178.5" y="370" width="120" height="60" as="geometry"/>
          </mxCell>
        </UserObject>
        <mxCell id="39" value="" style="verticalLabelPosition=bottom;aspect=fixed;html=1;verticalAlign=top;strokeColor=none;align=center;outlineConnect=0;shape=mxgraph.citrix.router;" parent="1" vertex="1">
          <mxGeometry x="1211" y="250" width="55" height="36.5" as="geometry"/>
        </mxCell>
        <mxCell id="43" value="SMC Diesel/Unleaded&lt;br style=&quot;font-size: 10px;&quot;&gt;134.20.106.18&lt;br style=&quot;font-size: 10px;&quot;&gt;00:21:0e:e4:f0:08&lt;br style=&quot;font-size: 10px;&quot;&gt;" style="rounded=1;whiteSpace=wrap;html=1;fontSize=10;" parent="1" vertex="1">
          <mxGeometry x="1382.5" y="900" width="132" height="60" as="geometry"/>
        </mxCell>
        <mxCell id="44" style="edgeStyle=orthogonalEdgeStyle;rounded=0;html=1;exitX=0.5;exitY=0;entryX=0.5;entryY=1;jettySize=auto;orthogonalLoop=1;dashed=1;" parent="1" source="46" target="48" edge="1">
          <mxGeometry relative="1" as="geometry"/>
        </mxCell>
        <mxCell id="45" style="edgeStyle=orthogonalEdgeStyle;rounded=0;html=1;exitX=0.5;exitY=1;jettySize=auto;orthogonalLoop=1;fontSize=10;" parent="1" source="46" target="43" edge="1">
          <mxGeometry relative="1" as="geometry"/>
        </mxCell>
        <UserObject label="SMC&lt;br style=&quot;font-size: 10px;&quot;&gt;134.20.106.17&lt;br style=&quot;font-size: 10px;&quot;&gt;" link="http://134.20.106.17/" id="46">
          <mxCell style="rhombus;whiteSpace=wrap;html=1;fontSize=10;" parent="1" vertex="1">
            <mxGeometry x="1404" y="725" width="89" height="90" as="geometry"/>
          </mxCell>
        </UserObject>
        <mxCell id="47" style="edgeStyle=orthogonalEdgeStyle;rounded=0;html=1;exitX=0.5;exitY=0;jettySize=auto;orthogonalLoop=1;" parent="1" source="48" target="49" edge="1">
          <mxGeometry relative="1" as="geometry"/>
        </mxCell>
        <UserObject label="SMC AP&lt;br&gt;134.20.106.15&lt;br&gt;" link="http://134.20.106.15/" id="48">
          <mxCell style="rounded=0;whiteSpace=wrap;html=1;fillColor=#fff2cc;strokeColor=#d6b656;" parent="1" vertex="1">
            <mxGeometry x="1388.5" y="370" width="120" height="60" as="geometry"/>
          </mxCell>
        </UserObject>
        <mxCell id="49" value="" style="verticalLabelPosition=bottom;aspect=fixed;html=1;verticalAlign=top;strokeColor=none;align=center;outlineConnect=0;shape=mxgraph.citrix.router;" parent="1" vertex="1">
          <mxGeometry x="1421" y="250" width="55" height="36.5" as="geometry"/>
        </mxCell>
        <mxCell id="54" style="edgeStyle=orthogonalEdgeStyle;rounded=0;html=1;exitX=0.875;exitY=0.5;exitPerimeter=0;jettySize=auto;orthogonalLoop=1;" parent="1" source="50" target="49" edge="1">
          <mxGeometry relative="1" as="geometry"/>
        </mxCell>
        <mxCell id="55" style="edgeStyle=orthogonalEdgeStyle;rounded=0;html=1;exitX=0.96;exitY=0.7;exitPerimeter=0;jettySize=auto;orthogonalLoop=1;" parent="1" source="50" target="39" edge="1">
          <mxGeometry relative="1" as="geometry"/>
        </mxCell>
        <UserObject label="Gasboy Network&lt;br&gt;AVALAN TIMS Server&lt;br&gt;" link="https://gas16prd.inl.gov/login.htm" id="50">
          <mxCell style="ellipse;shape=cloud;whiteSpace=wrap;html=1;" parent="1" vertex="1">
            <mxGeometry x="750.5" y="70" width="428" height="140" as="geometry"/>
          </mxCell>
        </UserObject>
        <mxCell id="66" value="2/4/2020" style="text;html=1;resizable=0;autosize=1;align=center;verticalAlign=middle;points=[];fillColor=none;strokeColor=none;rounded=0;fontStyle=1" parent="1" vertex="1">
          <mxGeometry x="154" y="10" width="60" height="20" as="geometry"/>
        </mxCell>
        <mxCell id="69" style="edgeStyle=orthogonalEdgeStyle;rounded=0;html=1;exitX=0;exitY=0.5;jettySize=auto;orthogonalLoop=1;" parent="1" source="68" target="7" edge="1">
          <mxGeometry relative="1" as="geometry"/>
        </mxCell>
        <mxCell id="70" style="edgeStyle=orthogonalEdgeStyle;rounded=0;html=1;exitX=0.5;exitY=1;jettySize=auto;orthogonalLoop=1;" parent="1" source="68" target="11" edge="1">
          <mxGeometry relative="1" as="geometry"/>
        </mxCell>
        <mxCell id="71" style="edgeStyle=orthogonalEdgeStyle;rounded=0;html=1;exitX=1;exitY=0.5;jettySize=auto;orthogonalLoop=1;" parent="1" source="68" target="24" edge="1">
          <mxGeometry relative="1" as="geometry">
            <Array as="points">
              <mxPoint x="516" y="170"/>
              <mxPoint x="640" y="170"/>
              <mxPoint x="640" y="268"/>
            </Array>
          </mxGeometry>
        </mxCell>
        <mxCell id="72" style="edgeStyle=orthogonalEdgeStyle;rounded=0;html=1;exitX=1;exitY=0.5;entryX=0.16;entryY=0.55;entryPerimeter=0;jettySize=auto;orthogonalLoop=1;" parent="1" source="68" target="50" edge="1">
          <mxGeometry relative="1" as="geometry">
            <Array as="points">
              <mxPoint x="516" y="147"/>
            </Array>
          </mxGeometry>
        </mxCell>
        <mxCell id="68" value="CFA Router" style="shape=cylinder;whiteSpace=wrap;html=1;boundedLbl=1;backgroundOutline=1;" parent="1" vertex="1">
          <mxGeometry x="456" y="110" width="60" height="80" as="geometry"/>
        </mxCell>
      </root>
    </mxGraphModel>
  </diagram>
</mxfile>
